# xmcd
#
# Track frame offsets:
#	150
#	28052
#	44254
#	59856
#	82658
#	101073
#	119675
#	134077
#	156729
#	179231
#	194833
#	217935
#
# Disc length: 3313 seconds
#
# Revision: 0
# Processed by: cddbd v1.4PL0 Copyright (c) Steve Scherf et al.
# Submitted via: dBpowerAMP V4.0
#
DISCID=c40cef0c
DTITLE=4 Handful Of Blues - First Album
DYEAR=2001
DGENRE=Blues
TTITLE0=Smelly Ol' Dog Blues
TTITLE1=Pride And Joy
TTITLE2=Before You Accuse Me
TTITLE3=The Red Rooster
TTITLE4=Dog Walk
TTITLE5=Cold Shot
TTITLE6=Got My Mojo Workin'
TTITLE7=Leave My Girl Alone
TTITLE8=I Just Want To Make Love To You
TTITLE9=I'm On Your Side
TTITLE10=Blind Man
TTITLE11=Honeymoon Blues
EXTD=Conmtact: Patrik Schneider, padi@baden.ch, \nhttp://web.cwmail.ch/padi
EXTT0=
EXTT1=
EXTT2=
EXTT3=
EXTT4=
EXTT5=
EXTT6=
EXTT7=
EXTT8=
EXTT9=
EXTT10=
EXTT11=
PLAYORDER=
